# xmcd
#
# Track frame offsets:
#	150
#	14632
#	28457
#	44495
#	64742
#	79167
#	98307
#	112115
#	130150
#	148055
#	165627
#	197098
#
# Disc length: 3255 seconds
#
# Revision: 3
# Processed by: cddbd v1.5.2PL0 Copyright (c) Steve Scherf et al.
# Submitted via: audiograbber 1.83.01
#
DISCID=aa0cb50c
DTITLE=Mindy McCready - If I Don't Stay The Night
DYEAR=1997
DGENRE=Oldies
TTITLE0=What If I Do
TTITLE1=This Is Me
TTITLE2=If I Don't Stay The Night
TTITLE3=Cross Against The Moon
TTITLE4=For A Good Time Call
TTITLE5=Oh Romeo
TTITLE6=The Other Side Of This Kiss
TTITLE7=You'll Never Know
TTITLE8=Fine Art Of Holding A Woman
TTITLE9=Only A Whisper
TTITLE10=Long, Long Time
TTITLE11=DATA
EXTD=
EXTT0=
EXTT1=
EXTT2=
EXTT3=
EXTT4=
EXTT5=
EXTT6=
EXTT7=
EXTT8=
EXTT9=
EXTT10=
EXTT11=
PLAYORDER=
